<svg width="444" height="341" viewBox="0 0 444 341" fill="none" xmlns="http://www.w3.org/2000/svg">
<path d="M92.9932 193.082C100.742 183.069 111.427 175.729 123.554 172.089C121.939 167.75 120.658 163.293 119.72 158.759C109.658 109.82 141.127 61.976 190.053 51.8841C238.979 41.7921 286.84 73.248 296.928 122.174C298.055 127.657 298.683 133.23 298.802 138.826C302.298 137.586 305.875 136.59 309.508 135.844C352.265 127.005 394.098 154.516 402.925 197.282C405.416 209.307 405.068 221.747 401.908 233.613C398.748 245.479 392.864 256.445 384.722 265.638" stroke="#43C5F3" stroke-width="4.83" stroke-miterlimit="10"/>
<path d="M393.374 292.332H271.866H280.284L357.135 291.441C371.342 290.206 381.353 276.271 375.955 263.078C375.022 260.799 375.998 260.164 374.843 257.966C362.762 235.218 341.816 216.687 318.079 205.922C318.667 205.811 319.259 205.73 319.864 205.649C315.444 203.436 310.891 201.496 306.232 199.843C303.761 198.961 301.26 198.164 298.764 197.466C286.491 194.006 269.907 195.587 264.684 209.176C260.292 220.585 266.124 234.366 277.093 239.363L296.796 246.894C296.63 246.647 296.481 246.4 296.327 246.14L313.461 252.688C313.801 252.926 314.06 253.263 314.204 253.652C314.347 254.042 314.368 254.466 314.264 254.867C314.16 255.27 313.935 255.63 313.62 255.9C313.306 256.171 312.915 256.339 312.503 256.381L270.891 260.927C264.893 261.532 257.382 264.041 252.961 268.169C249.736 271.151 247.018 275.211 247.043 280.348C244.324 280.553 241.62 280.933 238.949 281.486C234.873 282.363 230.723 283.875 230.429 286.359C229.85 291.343 236.934 292.357 241.399 292.357L213.147 292.246C216.18 292.246 216.555 292.221 218.565 290.219C220.576 288.216 222.825 286.674 222.825 283.641L223.072 273.92C223.072 271.918 223.549 270.299 221.547 270.299H203.655C204.384 270.319 205.102 270.128 205.726 269.751C206.349 269.373 206.85 268.824 207.17 268.169C207.183 268.153 207.192 268.134 207.195 268.113C208.09 266.452 208.294 264.062 208.128 261.8L208.337 261.059L208.874 259.082L220.239 252.394C220.325 252.345 220.407 252.291 220.487 252.232C226.416 248.607 227.158 242.127 225.126 236.334C225.083 236.223 225.058 236.125 225.015 236.031C224.921 235.784 224.836 235.55 224.729 235.316C224.187 233.995 223.515 232.73 222.723 231.541C219.788 226.958 215.528 223.222 211.481 222.246C210.346 221.99 209.186 221.861 208.022 221.863C222.105 208.657 238.332 196.92 257.497 193.018C274.266 189.554 291.609 190.006 308.174 194.339C327.532 199.489 344.964 210.182 358.787 224.623C377.395 244.036 386.098 266.716 393.374 292.332Z" fill="#43C5F3"/>
<path d="M204.06 233.965C203.392 235.28 202.299 236.331 200.959 236.947C199.814 237.522 198.602 237.952 197.35 238.225C195.289 238.57 194.56 237.266 193.244 235.988C192.493 235.263 191.63 234.665 190.688 234.216C190.123 233.939 189.504 233.79 188.875 233.781C188.246 233.771 187.623 233.901 187.05 234.161C186.662 234.334 186.332 234.615 186.101 234.971C185.87 235.327 185.747 235.743 185.746 236.167C185.831 237.731 187.987 238.966 189.205 239.613C190.796 240.365 192.449 240.975 194.147 241.437C198.309 242.715 191.378 245.377 189.921 245.543C186.805 245.966 183.642 245.891 180.549 245.322C181.437 247.306 182.118 249.376 182.581 251.499C183.062 253.531 183.625 255.976 183.229 258.021C182.747 260.424 181.124 262.208 179.122 263.418L171.339 230.949C174.209 229.582 177.33 228.822 180.507 228.718C183.684 228.614 186.849 229.168 189.802 230.344C190.787 230.707 191.855 230.779 192.88 230.553C193.905 230.326 194.843 229.81 195.583 229.066L196.379 228.295C197.488 228.054 198.645 228.145 199.702 228.559C201.589 229.27 205.082 231.558 204.06 233.965Z" fill="#3FBDF1"/>
<path d="M212.051 270.272H179.914C179.589 273.304 178.155 276.108 175.886 278.146C173.618 280.184 170.677 281.311 167.628 281.31H59.5859C59.5928 284.232 60.7566 287.032 62.8227 289.098C64.8888 291.164 67.6889 292.328 70.6108 292.335H212.043C214.965 292.325 217.764 291.161 219.832 289.095C221.9 287.03 223.067 284.232 223.08 281.31V273.898C223.08 272.936 222.698 272.014 222.019 271.334C221.339 270.654 220.417 270.272 219.455 270.272H212.051Z" stroke="#232323" stroke-width="4.83" stroke-miterlimit="10"/>
<path d="M162.422 198.202C163.372 199.51 164.054 200.993 164.429 202.565L179.654 266.039C179.991 267.416 180.078 268.843 179.914 270.252C179.589 273.284 178.155 276.088 175.887 278.125C173.619 280.163 170.677 281.29 167.628 281.289H57.5796C54.8012 281.288 52.1038 280.351 49.9225 278.63C47.741 276.909 46.2021 274.504 45.5536 271.802L30.3454 208.328C29.9062 206.51 29.8856 204.616 30.2852 202.788C30.6847 200.961 31.4941 199.248 32.6521 197.779C33.8102 196.31 35.2868 195.123 36.9704 194.308C38.6541 193.493 40.5008 193.071 42.3714 193.073H152.403C154.21 193.071 155.996 193.467 157.633 194.233C159.27 195 160.718 196.118 161.873 197.508L162.422 198.202Z" stroke="#232323" stroke-width="4.83" stroke-miterlimit="10"/>
<path d="M109.033 254.584C115.3 252.608 118.58 245.297 116.36 238.253C114.139 231.21 107.258 227.102 100.991 229.078C94.7238 231.054 91.4436 238.365 93.6644 245.409C95.8851 252.452 102.766 256.56 109.033 254.584Z" fill="#43C5F3"/>
<path d="M320.464 205.278C310.755 206.901 303.292 211.34 298.282 220.528C293.796 228.75 293.272 238.782 298.056 246.94L278.524 239.451C267.214 234.271 263.235 222.761 267.768 210.939C273.157 196.856 290.256 195.22 302.913 198.807C305.49 199.531 308.063 200.357 310.611 201.269C313.939 202.462 317.223 203.798 320.464 205.278Z" fill="#43C5F3"/>
<path d="M199.643 270.277H202.663C203.531 270.299 204.392 270.117 205.178 269.747C205.964 269.377 206.654 268.83 207.191 268.147C207.205 268.131 207.216 268.113 207.221 268.092C208.304 266.611 208.798 264.78 208.606 262.954L208.359 261.033L208.154 259.482L208.895 259.056L220.508 252.206L221.292 251.755C226.962 248.419 227.371 242.2 225.147 236.308C225.109 236.201 225.079 236.103 225.041 236.006C224.943 235.758 224.845 235.528 224.751 235.294C224.182 233.985 223.511 232.724 222.745 231.52C219.809 226.932 215.554 223.2 211.502 222.224C210.368 221.966 209.207 221.837 208.043 221.841C205.615 221.841 202.931 222.305 201.521 223.707C216.585 208.886 234.183 194.977 255.351 190.662C272.127 187.204 289.475 187.664 306.045 192.008C325.402 197.159 342.851 207.864 356.675 222.306C357.403 223.064 358.115 223.83 358.805 224.614C376.13 243.656 387.181 267.708 394.163 292.323" stroke="#232323" stroke-width="4.83" stroke-miterlimit="10"/>
<path d="M204.954 292.336H413.396" stroke="#232323" stroke-width="4.83" stroke-miterlimit="10"/>
<path d="M257.429 292.331H281.08" stroke="#232323" stroke-width="3.22" stroke-miterlimit="10"/>
<path d="M277.199 239.25C266.225 234.253 260.398 220.472 264.786 209.068C270.017 195.475 286.601 193.894 298.866 197.353C301.371 198.055 303.86 198.847 306.333 199.73C333.908 209.528 358.966 229.87 372.649 255.643C373.803 257.824 374.723 260.065 375.656 262.348C376.914 265.416 377.433 268.736 377.17 272.041C376.908 275.346 375.872 278.543 374.147 281.374C372.421 284.204 370.054 286.59 367.236 288.337C364.418 290.084 361.229 291.144 357.926 291.431L281.08 292.33H257.429C255.339 292.33 253.302 291.676 251.603 290.46C249.904 289.244 248.628 287.526 247.954 285.548C245.36 277.88 248.713 272.095 252.951 268.154C257.373 264.048 263.141 261.701 269.139 261.096L312.31 256.733C312.723 256.691 313.114 256.523 313.43 256.253C313.745 255.982 313.971 255.622 314.076 255.22C314.181 254.818 314.161 254.393 314.018 254.003C313.875 253.613 313.617 253.275 313.277 253.036L277.199 239.25Z" stroke="#232323" stroke-width="4.83" stroke-miterlimit="10"/>
<path d="M264.331 269.472C260.39 271.738 256.339 275.287 254.984 279.781C253.425 284.957 257.084 289.66 261.242 292.352" stroke="#232323" stroke-width="4.83" stroke-miterlimit="10"/>
<path d="M268.556 275.41C264.88 278.908 261.693 283.342 263.819 288.616C264.427 290.063 265.373 291.343 266.579 292.348" stroke="#232323" stroke-width="4.83" stroke-miterlimit="10"/>
<path d="M275.769 282.252C275.769 282.252 267.304 288.544 272.68 292.318" stroke="#232323" stroke-width="4.83" stroke-miterlimit="10"/>
<path d="M254.042 291.73L254.191 292.334H240.534C236.069 292.334 229.884 291.649 230.467 286.664C231.051 281.68 247.039 280.321 247.039 280.321" stroke="#232323" stroke-width="4.83" stroke-miterlimit="10"/>
<path d="M229.543 135L200.477 139.35L205.542 142.92L215.016 150.507C216.499 151.55 216.128 154.013 216.95 155.508C217.263 157.765 216.908 160.064 215.93 162.122C214.952 164.179 213.394 165.906 211.447 167.09C209.5 168.273 207.25 168.862 204.973 168.783C202.696 168.703 200.492 167.959 198.632 166.644L175.777 150.566C173.255 148.824 171.23 146.455 169.903 143.691C168.033 134.383 173.771 124.031 184.813 122.391L216.584 117.619L211.898 113.981L197.469 102.752C196.234 101.795 195.202 100.6 194.436 99.2376C194.115 96.9312 194.491 94.5814 195.514 92.4893C196.538 90.3977 198.162 88.6592 200.181 87.497C202.199 86.3349 204.518 85.802 206.841 85.9668C209.164 86.1313 211.385 86.9862 213.219 88.4214L238.957 108.443C241.062 110.06 242.764 112.142 243.929 114.527C245.684 123.524 240.069 133.42 229.543 135Z" fill="#43C5F3"/>
<path d="M208.158 259.477C208.158 259.477 207.272 251.681 204.269 248.934" stroke="#232323" stroke-width="4.83" stroke-miterlimit="10"/>
<path d="M171.04 231.494C173.94 230.07 177.107 229.269 180.335 229.145C183.564 229.02 186.783 229.574 189.784 230.77C190.77 231.134 191.84 231.207 192.866 230.98C193.892 230.754 194.832 230.237 195.573 229.492L201.508 223.682" stroke="#232323" stroke-width="4.83" stroke-miterlimit="10"/>
<path d="M189.903 264.61L194.858 266.838C194.968 266.884 195.086 266.906 195.206 266.903C195.325 266.899 195.442 266.871 195.55 266.819C195.657 266.768 195.753 266.695 195.83 266.604C195.908 266.513 195.965 266.408 195.999 266.293L196.779 264.529" stroke="#232323" stroke-width="4.83" stroke-miterlimit="10"/>
<path d="M190.713 254.77C191.128 255.723 191.272 256.772 191.129 257.802C190.986 258.831 190.562 259.802 189.903 260.606" stroke="#232323" stroke-width="3.22" stroke-miterlimit="10"/>
<path d="M201.951 270.272C202.731 269.118 202.727 266.327 202.526 265.206C202.399 264.495 201.201 264.24 201.074 264.955C200.724 266.953 198.471 270.025 196.388 270.272" stroke="#232323" stroke-width="4.83" stroke-miterlimit="10"/>
<path d="M191.948 262.741C195.461 262.741 198.308 259.893 198.308 256.381C198.308 252.868 195.461 250.021 191.948 250.021C188.435 250.021 185.588 252.868 185.588 256.381C185.588 259.893 188.435 262.741 191.948 262.741Z" stroke="#232323" stroke-width="4.83" stroke-miterlimit="10"/>
<path d="M189.819 262.369L188.685 265.556C187.899 265.275 187.064 265.153 186.23 265.195C185.396 265.237 184.578 265.443 183.823 265.801C183.069 266.16 182.392 266.664 181.833 267.284C181.273 267.904 180.841 268.628 180.562 269.415" stroke="#232323" stroke-width="4.83" stroke-miterlimit="10"/>
<path d="M191.948 261.765C194.922 261.765 197.333 259.355 197.333 256.381C197.333 253.407 194.922 250.996 191.948 250.996C188.974 250.996 186.563 253.407 186.563 256.381C186.563 259.355 188.974 261.765 191.948 261.765Z" fill="#43C5F3"/>
<path d="M179.096 263.836C181.098 262.626 182.717 260.854 183.198 258.443C183.599 256.394 183.036 253.953 182.555 251.921C182.092 249.797 181.411 247.727 180.523 245.744C183.616 246.311 186.779 246.384 189.895 245.961C191.347 245.799 198.283 243.149 194.121 241.859C192.424 241.398 190.772 240.786 189.183 240.031C187.956 239.396 185.805 238.161 185.729 236.593C185.723 236.17 185.841 235.754 186.068 235.396C186.295 235.038 186.621 234.754 187.007 234.578C187.58 234.32 188.204 234.191 188.833 234.202C189.462 234.213 190.081 234.363 190.645 234.642C191.589 235.086 192.453 235.685 193.201 236.414C194.521 237.692 195.241 238.97 197.311 238.642C198.561 238.373 199.771 237.943 200.911 237.364C202.254 236.749 203.35 235.699 204.021 234.382C205.052 231.984 201.55 229.696 199.65 229.01C198.595 228.596 197.441 228.501 196.332 228.738" stroke="#232323" stroke-width="4.83" stroke-miterlimit="10"/>
<path d="M229.543 135L200.477 139.349L205.542 142.919L212.094 147.52C213.38 148.391 214.48 149.51 215.329 150.811C216.178 152.111 216.76 153.568 217.039 155.096C217.319 156.624 217.292 158.192 216.959 159.709C216.626 161.226 215.994 162.662 215.1 163.932C214.206 165.203 213.068 166.282 211.752 167.108C210.436 167.933 208.97 168.488 207.437 168.741C205.904 168.993 204.337 168.938 202.826 168.578C201.315 168.217 199.891 167.56 198.637 166.643L175.782 150.566C173.259 148.824 171.234 146.454 169.907 143.69C165.047 133.598 170.729 120.158 183.428 118.262L208.635 114.488L211.898 113.981L197.469 102.752C196.258 101.809 195.244 100.637 194.486 99.302C193.727 97.9673 193.239 96.4959 193.049 94.9726C192.86 93.4496 192.972 91.9037 193.379 90.4233C193.787 88.9434 194.482 87.558 195.425 86.3465C196.367 85.1354 197.54 84.1215 198.875 83.3628C200.209 82.6045 201.68 82.1163 203.204 81.9268C204.727 81.7368 206.273 81.8488 207.753 82.2565C209.233 82.6637 210.618 83.359 211.83 84.3017L237.569 104.324C240.863 106.829 243.121 110.459 243.912 114.522C245.684 123.524 240.069 133.419 229.543 135Z" stroke="#232323" stroke-width="4.83" stroke-miterlimit="10"/>
<path d="M165.745 184.412L165.464 176.987L162.171 180.361C161.612 180.932 160.85 181.258 160.051 181.267C159.253 181.277 158.483 180.969 157.911 180.412C157.34 179.853 157.014 179.091 157.004 178.293C156.995 177.494 157.302 176.724 157.86 176.152L163.76 170.128C164.368 169.506 165.145 169.076 165.995 168.891C166.845 168.706 167.731 168.774 168.542 169.088C169.354 169.401 170.056 169.945 170.561 170.654C171.066 171.362 171.353 172.202 171.385 173.072L171.662 180.646L174.09 177.907C174.353 177.61 174.671 177.367 175.028 177.194C175.384 177.02 175.771 176.918 176.167 176.894C176.563 176.871 176.959 176.926 177.334 177.055C177.709 177.185 178.054 177.388 178.35 177.651C178.647 177.914 178.889 178.232 179.063 178.589C179.237 178.945 179.339 179.332 179.363 179.728C179.387 180.123 179.333 180.52 179.204 180.895C179.075 181.269 178.873 181.615 178.61 181.911L173.826 187.309C173.216 188.005 172.41 188.502 171.513 188.734C170.617 188.967 169.671 188.924 168.799 188.611C167.928 188.299 167.17 187.731 166.625 186.982C166.08 186.233 165.774 185.338 165.745 184.412Z" fill="#43C5F3"/>
<path d="M190.428 197.806L193.934 197.022L192.038 195.744C191.717 195.527 191.495 195.193 191.42 194.813C191.345 194.433 191.423 194.039 191.638 193.716C191.854 193.395 192.189 193.172 192.569 193.098C192.95 193.024 193.344 193.104 193.665 193.32L197.048 195.582C197.398 195.816 197.672 196.148 197.836 196.537C198 196.925 198.046 197.353 197.968 197.767C197.89 198.182 197.693 198.564 197.4 198.867C197.107 199.17 196.731 199.38 196.319 199.472L192.728 200.281L194.249 201.197C194.413 201.296 194.556 201.426 194.67 201.58C194.783 201.734 194.865 201.909 194.911 202.095C194.957 202.282 194.966 202.475 194.937 202.664C194.908 202.853 194.842 203.035 194.743 203.199C194.543 203.53 194.221 203.769 193.845 203.862C193.47 203.955 193.073 203.896 192.741 203.698L189.759 201.896C189.376 201.666 189.07 201.327 188.881 200.922C188.693 200.517 188.631 200.064 188.703 199.623C188.775 199.182 188.978 198.773 189.286 198.449C189.593 198.125 189.991 197.901 190.428 197.806Z" fill="#43C5F3"/>
<path d="M181.563 218.283L181.848 215.94L180.643 216.835C180.542 216.91 180.427 216.965 180.305 216.995C180.183 217.026 180.056 217.033 179.931 217.015C179.807 216.997 179.687 216.954 179.579 216.889C179.47 216.825 179.376 216.74 179.301 216.639C179.15 216.434 179.086 216.179 179.122 215.927C179.159 215.676 179.294 215.449 179.497 215.297L181.627 213.699C181.849 213.534 182.114 213.437 182.391 213.421C182.667 213.405 182.942 213.471 183.181 213.61C183.421 213.748 183.614 213.955 183.738 214.202C183.861 214.45 183.909 214.728 183.876 215.003L183.586 217.397L184.485 216.656C184.582 216.576 184.695 216.516 184.815 216.479C184.936 216.442 185.063 216.43 185.188 216.442C185.313 216.454 185.435 216.491 185.546 216.55C185.657 216.61 185.756 216.69 185.836 216.788C185.916 216.885 185.976 216.997 186.012 217.118C186.05 217.238 186.062 217.365 186.05 217.49C186.038 217.616 186.001 217.737 185.941 217.849C185.882 217.96 185.801 218.058 185.704 218.138L183.931 219.595C183.705 219.775 183.43 219.885 183.141 219.909C182.852 219.933 182.562 219.871 182.309 219.73C182.055 219.59 181.849 219.378 181.716 219.12C181.584 218.862 181.53 218.571 181.563 218.283Z" fill="#43C5F3"/>
<path d="M320.464 205.571L320.285 205.874C320.149 205.789 320.007 205.715 319.859 205.652L320.464 205.571Z" fill="#353642"/>
</svg>
